<svg width="35" height="34" viewBox="0 0 35 34" fill="none" xmlns="http://www.w3.org/2000/svg">
<path d="M29.0482 28.07C31.8219 25.0518 33.3608 21.1019 33.3603 17.0027C33.3603 14.8548 32.9372 12.728 32.1151 10.7436C31.293 8.75931 30.088 6.95638 28.569 5.43783C27.0499 3.91927 25.2466 2.71484 23.262 1.89334C21.2774 1.07184 19.1506 0.649358 17.0027 0.650024C12.6657 0.650024 8.50633 2.37289 5.43961 5.43961C2.37289 8.50633 0.650024 12.6657 0.650024 17.0027C0.650287 20.7309 1.92436 24.3472 4.26136 27.252C6.59836 30.1569 9.85798 32.176 13.4997 32.9746V22.2116H8.8085V17.3276H13.5046V13.0884C13.5046 11.7945 14.0188 10.5535 14.9337 9.63852C15.8487 8.72355 17.0895 8.20953 18.3835 8.20953H22.6988V13.0935H20.3076C19.7973 13.0935 19.308 13.2962 18.9472 13.6571C18.5863 14.0179 18.3835 14.5073 18.3835 15.0176V17.3276H23.0645V22.2116H18.3835V33.2995C22.4681 32.9546 26.2744 31.0882 29.0482 28.07Z" stroke="#0E3E3E" stroke-width="1.3" stroke-linecap="round" stroke-linejoin="round"/>
</svg>
