<svg width="34" height="34" viewBox="0 0 34 34" fill="none" xmlns="http://www.w3.org/2000/svg">
<path d="M25.1104 10.9866C24.0756 9.59603 22.7003 8.49555 21.1165 7.79126C19.5328 7.08697 17.7942 6.80263 16.0686 6.96568C13.7656 7.18786 11.6081 8.19225 9.95553 9.81157C8.30295 11.4309 7.25494 13.5674 6.98599 15.8655C6.82432 17.2791 6.96316 18.7109 7.39353 20.0672C7.8239 21.4234 8.53609 22.6733 9.48329 23.7351C10.4305 24.7968 11.5914 25.6464 12.8899 26.2282C14.1883 26.8099 15.595 27.1107 17.0178 27.1108C19.5557 27.11 22.0003 26.1536 23.8649 24.432C25.7295 22.7104 26.8775 20.3498 27.0804 17.8201C27.0873 17.7176 27.073 17.6149 27.0387 17.5181C27.0044 17.4214 26.9508 17.3327 26.8808 17.2575C26.8109 17.1823 26.7262 17.1223 26.6322 17.0811C26.5381 17.0399 26.4366 17.0184 26.334 17.0179H17.1195M33.3554 17.0027C33.3554 26.034 26.034 33.3554 17.0027 33.3554C7.97137 33.3554 0.650024 26.034 0.650024 17.0027C0.650024 7.97137 7.97137 0.650024 17.0027 0.650024C26.034 0.650024 33.3554 7.97137 33.3554 17.0027Z" stroke="#0E3E3E" stroke-width="1.3" stroke-linecap="round" stroke-linejoin="round"/>
</svg>
