<svg width="24" height="26" viewBox="0 0 24 26" fill="none" xmlns="http://www.w3.org/2000/svg">
<g filter="url(#filter0_d_66_55)">
<path d="M18.3177 15.9892L18.324 15.3463H18.3177V15.9892ZM19.0139 14.4694L18.4893 14.8409L18.4978 14.853L18.5069 14.8646L19.0139 14.4694ZM17.4076 10.5976L18.0409 10.4865L18.0394 10.479L17.4076 10.5976ZM16.0298 3.93704L16.5369 3.54199L16.5356 3.54035L16.0298 3.93704ZM11.9289 1.90049L11.9303 1.25762L11.9267 1.25764L11.9289 1.90049ZM7.82795 3.93704L7.32246 3.53987L7.3208 3.542L7.82795 3.93704ZM6.45371 10.5976L5.82181 10.4792L5.82053 10.4865L6.45371 10.5976ZM4.84744 14.4694L5.35093 14.8691L5.36189 14.8553L5.37208 14.8409L4.84744 14.4694ZM5.54361 15.9892V15.3462L5.53141 15.3464L5.54361 15.9892ZM11.2896 1.9005C11.2896 2.25554 11.5774 2.54336 11.9325 2.54336C12.2875 2.54336 12.5753 2.25554 12.5753 1.9005H11.9325H11.2896ZM12.5753 0.642822C12.5753 0.287782 12.2875 -3.48687e-05 11.9325 -3.48687e-05C11.5774 -3.48687e-05 11.2896 0.287782 11.2896 0.642822H11.9325H12.5753ZM11.9289 19.5L11.9302 18.8571H11.9289L11.9289 19.5ZM18.3177 15.9892L18.3115 16.632C18.609 16.6349 18.8989 16.5487 19.1469 16.3869L18.7956 15.8485L18.4442 15.3102C18.4057 15.3353 18.364 15.3467 18.324 15.3464L18.3177 15.9892ZM18.7956 15.8485L19.1469 16.3869C19.3946 16.2252 19.589 15.9959 19.7113 15.7289L19.1268 15.4612L18.5424 15.1934C18.5186 15.2454 18.4832 15.2847 18.4442 15.3102L18.7956 15.8485ZM19.1268 15.4612L19.7113 15.7289C19.8335 15.4621 19.8799 15.1663 19.8468 14.8753L19.2081 14.948L18.5693 15.0208C18.5762 15.0811 18.5663 15.1413 18.5424 15.1934L19.1268 15.4612ZM19.2081 14.948L19.8468 14.8753C19.8136 14.5843 19.7018 14.3061 19.5209 14.0741L19.0139 14.4694L18.5069 14.8646C18.5396 14.9066 18.5625 14.9605 18.5693 15.0208L19.2081 14.948ZM19.0139 14.4694L19.5385 14.0979C18.7836 13.0318 18.2706 11.7965 18.0408 10.4865L17.4076 10.5976L16.7744 10.7087C17.0367 12.2033 17.6226 13.617 18.4893 14.8409L19.0139 14.4694ZM17.4076 10.5976L18.0394 10.479C17.9406 9.95252 17.8983 9.40866 17.869 8.83841C17.8404 8.28218 17.8236 7.67536 17.7724 7.0928C17.6683 5.90789 17.4133 4.66705 16.5369 3.542L16.0298 3.93704L15.5226 4.33209C16.1764 5.1714 16.3964 6.12099 16.4917 7.20535C16.5402 7.75743 16.5542 8.30496 16.585 8.90438C16.6151 9.48977 16.6607 10.1029 16.7758 10.7162L17.4076 10.5976ZM16.0298 3.93704L16.5356 3.54035C15.9797 2.8314 15.2792 2.25756 14.4827 1.86205L14.1968 2.43782L13.9109 3.01358C14.5324 3.32222 15.0837 3.77233 15.5239 4.33373L16.0298 3.93704ZM14.1968 2.43782L14.4827 1.86205C13.6862 1.46647 12.8145 1.25965 11.9303 1.25763L11.9289 1.90049L11.9274 2.54335C12.6123 2.54491 13.2895 2.70502 13.9109 3.01358L14.1968 2.43782ZM11.9289 1.90049L11.9267 1.25764C11.0429 1.26054 10.1717 1.46774 9.37547 1.86316L9.6614 2.43893L9.94734 3.0147C10.5688 2.70608 11.246 2.5456 11.931 2.54334L11.9289 1.90049ZM9.6614 2.43893L9.37547 1.86316C8.57936 2.25852 7.87886 2.83173 7.32246 3.53987L7.82795 3.93704L8.33344 4.33421C8.77422 3.77322 9.32576 3.32338 9.94734 3.0147L9.6614 2.43893ZM7.82795 3.93704L7.3208 3.542C6.44431 4.66721 6.19025 5.9073 6.08705 7.09185C6.03632 7.67409 6.01998 8.28096 5.99174 8.83719C5.96278 9.40753 5.92068 9.95182 5.82185 10.4792L6.45371 10.5976L7.08558 10.716C7.20068 10.1017 7.24606 9.48806 7.2758 8.90239C7.30625 8.30261 7.31983 7.75537 7.36791 7.20345C7.46233 6.11968 7.68145 5.17124 8.33511 4.33209L7.82795 3.93704ZM6.45371 10.5976L5.82053 10.4865C5.59071 11.7965 5.07771 13.0318 4.32279 14.0979L4.84744 14.4694L5.37208 14.8409C6.2387 13.617 6.82468 12.2033 7.0869 10.7087L6.45371 10.5976ZM4.84744 14.4694L4.34394 14.0697C4.15995 14.3014 4.04572 14.5805 4.01117 14.8729L4.64959 14.9483L5.288 15.0238C5.29509 14.9638 5.31819 14.9103 5.35093 14.8691L4.84744 14.4694ZM4.64959 14.9483L4.01117 14.8729C3.97662 15.1653 4.02269 15.4629 4.14555 15.7312L4.73001 15.4634L5.31447 15.1957C5.29068 15.1438 5.28091 15.0838 5.288 15.0238L4.64959 14.9483ZM4.73001 15.4634L4.14555 15.7312C4.26849 15.9995 4.46449 16.2299 4.71431 16.3913L5.06321 15.8514L5.41212 15.3114C5.37347 15.2865 5.33818 15.2475 5.31447 15.1957L4.73001 15.4634ZM5.06321 15.8514L4.71431 16.3913C4.96447 16.553 5.25666 16.6376 5.5558 16.6319L5.54361 15.9892L5.53141 15.3464C5.49171 15.3472 5.45042 15.3362 5.41212 15.3114L5.06321 15.8514ZM5.54361 15.9892V16.632H18.3177V15.9892V15.3463H5.54361V15.9892ZM11.9325 1.9005H12.5753V0.642822H11.9325H11.2896V1.9005H11.9325ZM13.7636 17.5774L13.1207 17.5786C13.1211 17.7507 13.0889 17.9204 13.0268 18.078L13.6249 18.3137L14.223 18.5495C14.3449 18.24 14.4071 17.9094 14.4064 17.5762L13.7636 17.5774ZM13.6249 18.3137L13.0268 18.078C12.9647 18.2354 12.8743 18.3766 12.7622 18.4941L13.2273 18.938L13.6923 19.3818C13.9211 19.142 14.101 18.859 14.223 18.5495L13.6249 18.3137ZM13.2273 18.938L12.7622 18.4941C12.6501 18.6116 12.5186 18.703 12.3762 18.7647L12.6315 19.3546L12.8869 19.9446C13.1901 19.8134 13.4635 19.6216 13.6923 19.3818L13.2273 18.938ZM12.6315 19.3546L12.3762 18.7647C12.2338 18.8263 12.0823 18.8574 11.9302 18.8571L11.9289 19.5L11.9275 20.1428C12.2576 20.1435 12.5837 20.0758 12.8869 19.9446L12.6315 19.3546ZM11.9289 19.5L11.9289 18.8571C11.7769 18.8571 11.6257 18.8257 11.4836 18.764L11.2273 19.3535L10.971 19.9431C11.2737 20.0747 11.5993 20.1428 11.9289 20.1428L11.9289 19.5ZM11.2273 19.3535L11.4836 18.764C11.3413 18.7021 11.2101 18.6107 11.0983 18.4933L10.6328 18.9366L10.1673 19.38C10.3956 19.6197 10.6685 19.8116 10.971 19.9431L11.2273 19.3535ZM10.6328 18.9366L11.0983 18.4933C10.9864 18.3758 10.8962 18.2347 10.8343 18.0774L10.2361 18.3128L9.63794 18.5483C9.75963 18.8574 9.93902 19.1403 10.1673 19.38L10.6328 18.9366ZM10.2361 18.3128L10.8343 18.0774C10.7724 17.92 10.7403 17.7504 10.7406 17.5786L10.0978 17.5774L9.45493 17.5762C9.4543 17.9089 9.51627 18.2392 9.63794 18.5483L10.2361 18.3128Z" fill="#093030"/>
</g>
<defs>
<filter id="filter0_d_66_55" x="0" y="0" width="23.8572" height="28.1428" filterUnits="userSpaceOnUse" color-interpolation-filters="sRGB">
<feFlood flood-opacity="0" result="BackgroundImageFix"/>
<feColorMatrix in="SourceAlpha" type="matrix" values="0 0 0 0 0 0 0 0 0 0 0 0 0 0 0 0 0 0 127 0" result="hardAlpha"/>
<feOffset dy="4"/>
<feGaussianBlur stdDeviation="2"/>
<feComposite in2="hardAlpha" operator="out"/>
<feColorMatrix type="matrix" values="0 0 0 0 0 0 0 0 0 0 0 0 0 0 0 0 0 0 0.25 0"/>
<feBlend mode="normal" in2="BackgroundImageFix" result="effect1_dropShadow_66_55"/>
<feBlend mode="normal" in="SourceGraphic" in2="effect1_dropShadow_66_55" result="shape"/>
</filter>
</defs>
</svg>
